<?xml version="1.0" encoding="UTF-8"?><svg id="a" xmlns="http://www.w3.org/2000/svg" viewBox="0 0 195.4 102.25"><defs><style>.b{fill:#fff;}.c,.d{fill:#fbd008;}.d{stroke:#fff;stroke-miterlimit:10;}</style></defs><g><path class="d" d="M70.79,51.11c-4.99-2.49-9.96-4.98-14.95-7.48-3.4-1.82-5.87-3.96-7.48-5.58-1.83-1.83-2.74-3.16-3.35-4.21-1.24-2.12-2.5-4.27-2.35-7.08,.17-3.02,1.87-5.06,2.51-5.76-3.12,2.41-4.12,5.06-4.52,6.64-.68,2.75-.1,4.82,1,12.18,.56,3.7,.94,6.72,1.17,8.63l.67,11.29,.17,4.21c1.83-.66,4.68-1.68,8.2-2.88,5.63-1.92,6.94-2.26,9.04-3.23,2.44-1.13,5.91-3.09,9.88-6.74h0Z"/><path class="d" d="M45.18,21c3.8-4.13,12.44-9.28,13.22-9.73,2.84-1.96,7.07-4.5,12.44-6.37,3.96-1.38,6.95-1.8,12.79-2.6,7.09-.96,12.41-1.2,20.34-1.49,7.48-.28,11.21-.42,13.68-.16,6.92,.71,11.97,2.52,17.95,4.64,8.45,3.02,13.18,5.76,15.02,6.87,8.54,5.14,11.15,9.03,12.38,12.84,.47,1.45,1.37,4.31,.54,7.09-.69,2.33-2.27,3.49-5.4,5.75-1.53,1.09-3.55,2.39-6.03,3.54-3.72-3.24-8.77-7.12-15.07-10.63-2.92-1.62-8.02-4.42-15.07-6.42-1.96-.56-9.94-2.72-20.59-2.21-5.14,.25-8.79,1.01-14.56,2.21-6.83,1.42-10.76,2.25-16.06,4.64-7.02,3.17-11.51,6.87-13.06,8.19-2.05,1.76-3.69,3.42-4.84,4.67-3.37-2.15-5.58-4.71-6.86-6.45-1.95-2.62-2.65-4.53-3-6.2-.19-.91-.44-2.26-.15-3.89,.32-1.79,1.2-3.08,2.3-4.28h.02Z"/><path class="d" d="M123.05,52.44c2.52-.55,12.64-2.83,21.84-7.14,1.03-.48,3.72-1.94,9.09-4.87,0,0,.27-.14,5.57-3.63,1.49-.99,2.39-1.59,3.16-2.96,1.04-1.86,1.16-3.9,1.17-4.66,.04-2.49-.79-4.29-1.73-6.33-.84-1.82-1.75-3.14-2.39-3.97,1.03,.82,2.2,2.05,3.2,3.82,1.24,2.18,1.72,4.33,2.01,5.64,.17,.76,.28,1.41,.35,1.88,.03,1.45,.03,3.59-.15,6.17-.2,2.81-.44,3.84-.81,6.87-.92,7.4-.6,10.23-1.39,14.57-.06,.36-.42,2.23-.88,4.89l-.37,2.16c-2.97-.88-5.94-1.78-8.92-2.66-1.58-.49-11.25-3.52-11.67-3.66-7.74-2.42-8.04-2.52-9.04-2.49-1.93,.06-4.05,.53-6.4-1-1.24-.8-2.1-1.87-2.64-2.66h0Z"/><path class="d" d="M77.65,50.56c-1.05-.24-2.6-.41-4.44,0-1.38,.31-2.51,.86-3.33,1.36-1.85,1.61-4.72,3.83-8.48,5.69-2.23,1.11-3.4,1.4-8.88,3.24-5.91,1.98-8.86,2.97-11.53,4.04-5.13,2.06-5.21,2.66-11.55,5.58-6.5,3-7.94,3.07-14.81,5.97-3.4,1.43-8.28,3.63-14.14,6.75v18.39l21-5.66,17.07-3.1,19.16-3.99c3.77-.45,8.04-1.34,12.64-2.99,1.89-.68,3.68-1.42,5.35-2.21,.69-2.32,1.95-5.69,4.19-9.08,1.94-2.94,3.95-4.87,5.44-6.09l4.6-2.99c-1.67-1.2-3.6-2.77-5.61-4.87-1.9-1.98-3.45-3.97-4.68-5.76l-2.01-4.31h0Z"/><path class="d" d="M123.05,52.44l2.16,2.33c.55,.38,1.39,.87,2.45,1.21,2.04,.65,2.72,0,4.97,.13,.98,.06,2.96,.56,6.84,1.96,2.81,1.01,5.68,1.75,8.51,2.66,3.22,1.03,7.84,2.47,13.72,4.16,2.6,.75,5.22,1.52,7.82,2.27l6.7,1.43,18.66,4.76-.5,25.12-21-1.66-13.39-1.66c-6.48-.34-11.53-1-14.98-1.55-2.28-.36-4.41-.76-7.03-1.66-2.89-.99-5.23-2.16-6.86-3.1l-4.44-2.88c-.93,.2-2.2,.31-3.64,0-.64-.14-1.22-.34-1.72-.55,1.16-.6,4.08-2.35,6.28-6.53,2.15-4.1,2.36-8.16,2.43-9.63,.09-2.03,.25-5.9-1.59-9.63-.97-1.96-2.14-3.19-2.92-3.87l-2.47-3.32h0Z"/><path class="d" d="M105.66,37.25c-.4-.6-.78-1.01-1.38-2.08-.74-1.31-.77-1.78-1.19-2.1-.49-.39-1.38-.47-3.14,.94-.82,.98-2.12,2.41-3.89,3.82-.87,.69-1.48,1.09-4.27,2.82-3.43,2.13-5.15,3.2-5.4,3.32-5.33,2.57-6.34,2.9-6.34,2.9-.61,.2-1.88,.6-2.32,1.9-.21,.65-.16,1.32-.08,1.78,.46,1.16,1.11,2.67,2.01,4.31,0,0,.83,1.52,1.72,2.82,2.43,3.56,5.49,5.74,7.65,7.25,2.71,1.89,2.44,1.48,5.58,3.43,3.77,2.33,4.38,2.83,5.98,3.61,2.34,1.13,4.33,1.72,5.63,2.05,.26-1.87,.62-4.75,.88-8.3,.09-1.26,.3-4.4,.37-13.29,.02-2.61,.04-6.22,0-10.55-.51-2.34-1.23-3.76-1.82-4.64h0Z"/><path class="d" d="M89.56,65.3c-1.05,.73-2.51,1.79-4.2,3.19-1.71,1.4-2.58,2.13-3.56,3.26-1.8,2.05-2.86,4.06-3.45,5.18-.64,1.23-1.78,3.6-2.6,6.72-.34,1.28-.46,2.13-.69,3.82-.26,1.89-.22,2.52,0,3.07,.38,.94,1.17,1.29,1.64,1.49,2.22,.95,3.33,1.42,5.46,1.9,1.74,.4,.9,.44,5.96,2.25,1.45,.52,2.92,.95,5.84,1.82,1.85,.55,3.56,1.03,5.52,.47,.85-.25,1.53-.63,2.07-1.39,.69-.95,.88-2.1,.94-2.66l.5-1.9c-.02,.06-.24,.75-.82,.92-.46,.13-.82-.19-.88-.25,.14-.69,.39-1.85,.76-3.23,.48-1.86,.83-2.81,1.64-5.48,.58-1.9,.88-2.9,1.19-4.07,.4-1.49,.92-3.66,1.38-6.4l-4.66-1.6-5.46-3.12-4.61-2.76-1.95-1.25h0Z"/><path class="d" d="M105.09,36.42c1.04,.13,2.59,.51,4.22,1.65,1,.71,1.66,1.43,2.95,2.9,2.43,2.8,4.27,5.02,4.58,5.4,1.31,1.58,3.24,3.73,5.84,6.05,1.22,1.36,2.44,2.74,3.65,4.1,.69,.74,1.8,2.1,2.62,4.23,.81,2.08,.98,3.89,1.09,5.27,.08,.94,.25,3.64-.43,6.98-.68,3.39-1.88,5.63-2.2,6.2-1.38,2.5-2.9,3.89-3.48,4.4-1.24,1.06-2.29,1.55-3.27,2.01-1.98,.93-2.94,.95-4.84,1.49-5.19,1.49-8.35,4.26-10.75,4.64-.52,.08-1.08,.07-1.71,.58-.57,.47-.87,1.11-1.44,1.11-.28,0-.52-.15-.66-.27,.28-1.26,.74-3.15,1.37-5.41,.7-2.52,1.15-3.74,1.58-5.17,1.38-4.49,1.91-8.35,2.23-10.62,.35-2.48,.47-5.06,.72-10.2,.3-6.21,.17-8.04,.34-13.83,0-.32,.04-1.55,0-3.2-.04-1.38-.06-2.18-.2-3.07-.15-.96-.5-2.43-1.4-4.08l-.81-1.18h-.02Z"/></g><path class="b" d="M90.79,64.93c1.93,0,1.93-3,0-3s-1.93,3,0,3h0Z"/><path class="b" d="M90.79,64.88c1.93,0,1.93-3,0-3s-1.93,3,0,3h0Z"/><path class="b" d="M90.72,64.88c1.93,0,1.93-3,0-3s-1.93,3,0,3h0Z"/><path class="b" d="M90.72,64.88c1.93,0,1.93-3,0-3s-1.93,3,0,3h0Z"/><path class="b" d="M90.75,64.84c1.93,0,1.93-3,0-3s-1.93,3,0,3h0Z"/><path class="b" d="M90.79,64.84c1.93,0,1.93-3,0-3s-1.93,3,0,3h0Z"/><path class="b" d="M93.12,63.65c2.82,.03,5.59-.68,8.09-1.97,.37-.19,.7-.39,.95-.72,.37-.48,.45-1.08,.3-1.66-.19-.73-.86-1.33-1.41-1.8-1.01-.86-2.15-1.55-3.33-2.14-1.49-.74-4.16-1.57-5.18,.34-.37,.69-.2,1.66,.54,2.05,.7,.37,1.66,.2,2.05-.54-.08,.09-.16,.17-.26,.25-.21,.08-.24,.11-.08,.07-.14,.02-.16,.02-.05,.02,.07,0,.14,0,.21,0,.18,.01,.19,.01,.02,0,.09,.02,.19,.04,.28,.06,.14,.04,.28,.08,.42,.13,.09,.03,.18,.07,.28,.1-.13-.05-.11-.04,.05,.03,.13,.07,.27,.13,.4,.2,.28,.14,.56,.29,.83,.45,.53,.3,1.05,.62,1.53,.98-.21-.16,.05,.04,.11,.1,.12,.1,.24,.2,.35,.31s.23,.22,.34,.34c.06,.07,.13,.13,.19,.2-.24-.23-.2-.51,.12-.84,.28-.91,.35-.77-.12-.53-.13,.07-.26,.13-.39,.2-.17,.09-.35,.17-.53,.25-.43,.2,.26-.1-.18,.08-.62,.25-1.26,.46-1.9,.63-.32,.08-.64,.16-.97,.22-.14,.03-.28,.05-.42,.07-.09,.02-.19,.03-.28,.04,.17-.02,.16-.02-.02,0-.65,.07-1.3,.11-1.96,.1-.78,0-1.54,.7-1.5,1.5s.66,1.49,1.5,1.5h0Z"/><path class="b" d="M83.87,51.08c1.93,0,1.93-3,0-3s-1.93,3,0,3h0Z"/><path class="b" d="M83.12,50.91h.01l-.3-.23s.05,.04,.07,.07l-.23-.3c.06,.08,.1,.16,.14,.25,.1,.19,.23,.38,.38,.53l.03,.02c.08,.07,.22,.18,.31,.24,.07,.05,.17,.08,.24,.11,.09,.04,.16,.08,.24,.09,.37,.06,.36,.07,.66,.03,.08-.01,.18-.01,.27-.04,.14-.05,.28-.11,.42-.18,.16-.08,.31-.2,.43-.33,.17-.17,.31-.38,.43-.59,.03-.05,.06-.11,.09-.16,.06-.13,.12-.27,.17-.41,.05-.15,.06-.34,.08-.49,.03-.31-.08-.61-.21-.88-.13-.25-.38-.5-.62-.63-.15-.08-.32-.15-.49-.19-.2-.04-.4-.06-.6-.08-.14-.02-.29-.03-.43-.02-.15,.01-.31,.02-.46,.07-.01,0-.02,0-.03,.01l-.36,.15h-.02c-.23,.15-.51,.4-.62,.65-.11,.17-.17,.36-.18,.56-.04,.2-.04,.4,.03,.6,.05,.2,.14,.37,.27,.51,.11,.16,.25,.29,.42,.39l.36,.15c.27,.07,.53,.07,.8,0l.36-.15c.23-.13,.4-.31,.54-.54,0-.02,.02-.04,.03-.05l-.23,.3s.02-.02,.03-.03l-.3,.23s.03-.02,.05-.03l-.36,.15s.05-.02,.08-.02l-.4,.05c.16-.02,.33,0,.49,.02l-.4-.05c.09,.01,.19,.02,.27,.05l-.36-.15s.04,.02,.05,.03l-.3-.23s.02,.01,.02,.02l-.23-.3s.02,.03,.03,.05l-.15-.36s0,.03,.01,.05l-.05-.4s0,.05,0,.07l.05-.4s-.02,.07-.03,.11l.15-.36c-.06,.14-.14,.28-.23,.4l.23-.3s-.08,.09-.13,.13l.3-.23s-.06,.04-.09,.06l.36-.15s-.06,.02-.1,.03l.4-.05s-.04,0-.07,0l.4,.05s-.04,0-.06-.02l.36,.15s-.05-.02-.07-.04l.3,.23s-.05-.04-.07-.07l.23,.3c-.07-.09-.11-.19-.16-.29-.02-.05-.05-.09-.08-.13-.24-.34-.29-.38-.62-.62-.17-.11-.36-.17-.56-.18-.2-.04-.4-.04-.6,.03-.2,.05-.37,.14-.51,.27-.16,.11-.29,.25-.39,.42l-.15,.36c-.07,.27-.07,.53,0,.8l.15,.36c.13,.23,.31,.4,.54,.54h0Z"/><path class="c" d="M84.2,51.43c1.93,0,1.93-3,0-3s-1.93,3,0,3h0Z"/><path class="c" d="M83.15,47.54c-.19,.09-.38,.17-.57,.26-.29,.13-.52,.38-.68,.66-.23,.39-.25,.85-.14,1.28,.1,.39,.37,.75,.68,1,.16,.13,.32,.27,.51,.37s.37,.17,.56,.25c.16,.06,.32,.11,.48,.14,.29,.07,.6,.13,.9,.14,.54,0,1.04-.21,1.43-.57,.14-.13,.27-.3,.35-.47,.18-.35,.22-.56,.25-.95,0-.21-.04-.4-.13-.58-.06-.19-.16-.35-.31-.48-.26-.26-.69-.46-1.06-.44s-.79,.14-1.06,.44l-.23,.3c-.14,.23-.2,.49-.2,.76v.04l.05-.4s-.02,.09-.03,.13l.15-.36c-.02,.05-.05,.1-.08,.14l.23-.3s-.05,.06-.09,.09l.3-.23s-.06,.04-.1,.06l.36-.15s-.09,.03-.14,.04l.4-.05c-.08,0-.16,0-.24,0l.4,.05c-.29-.04-.59-.11-.86-.22l.36,.15c-.14-.06-.27-.13-.38-.22l.3,.23c-.08-.07-.16-.14-.23-.22l.23,.3s-.04-.05-.05-.08l.15,.36s-.02-.06-.03-.09l.05,.4v-.03l-.05,.4v-.03l-.15,.36s.02-.04,.03-.05l-.23,.3,.02-.02-.3,.23c.2-.12,.44-.2,.66-.3,.17-.09,.32-.22,.42-.39,.13-.14,.22-.31,.27-.51,.06-.2,.07-.4,.03-.6,0-.2-.07-.39-.18-.56-.21-.32-.51-.6-.9-.69l-.4-.05c-.27,0-.52,.07-.76,.2h0Z"/><path class="c" d="M85.02,47.86c-.19-.12-.4-.17-.62-.2s-.43-.03-.65,.04c-.42,.12-.79,.42-1,.8s-.25,.83-.28,1.27c-.02,.33,.01,.67,.09,.99,.1,.42,.33,.78,.61,1.1,.1,.11,.21,.19,.32,.28s.23,.18,.36,.25c.24,.13,.51,.25,.78,.31s.56,.1,.84,.08,.57-.06,.83-.16c.2-.08,.4-.16,.59-.26s.34-.24,.51-.37c.25-.2,.44-.47,.63-.73,.21-.3,.25-.81,.15-1.16s-.36-.73-.69-.9c-.35-.18-.77-.28-1.16-.15l-.36,.15c-.23,.13-.4,.31-.54,.54-.02,.02-.03,.05-.05,.07l.23-.3c-.11,.14-.23,.26-.36,.37l.3-.23c-.12,.09-.25,.17-.39,.23l.36-.15c-.13,.06-.27,.09-.41,.11l.4-.05c-.13,.02-.26,.02-.39,0l.4,.05c-.13-.02-.26-.05-.38-.1l.36,.15c-.13-.05-.24-.12-.35-.21l.3,.23c-.07-.06-.14-.12-.2-.2l.23,.3c-.05-.07-.09-.14-.13-.22l.15,.36c-.04-.1-.07-.2-.09-.31l.05,.4c-.03-.27-.02-.54,.01-.81l-.05,.4c0-.06,.02-.11,.04-.17l-.15,.36s.02-.05,.04-.07l-.23,.3,.03-.03-.3,.23,.03-.02-.36,.15h.03l-.4,.04h.03l-.4-.06h.03l-.36-.14,.03,.02c.32,.21,.8,.25,1.16,.15s.73-.36,.9-.69c.18-.35,.28-.77,.15-1.16s-.35-.68-.69-.9h0Z"/><path class="c" d="M83.79,47.77l-.13,.3c-.11,.17-.17,.36-.18,.56-.04,.2-.04,.4,.03,.6,.05,.2,.14,.37,.27,.51,.11,.16,.25,.29,.42,.39l.36,.15c.27,.07,.53,.07,.8,0l.36-.15c.23-.13,.4-.31,.54-.54l.13-.3c.11-.17,.17-.36,.18-.56,.04-.2,.04-.4-.03-.6-.05-.2-.14-.37-.27-.51-.11-.16-.25-.29-.42-.39l-.36-.15c-.27-.07-.53-.07-.8,0l-.36,.15c-.23,.13-.4,.31-.54,.54h0Z"/><path class="c" d="M93.45,54.51c-.6,.41-1.04,.87-1.47,1.46s-.16,1.53,.39,1.94c.62,.46,1.4,.39,1.97-.12,1.04-.92,1.63-2.58,.59-3.75-.9-1.01-2.54-1.1-3.66-.43s-1.62,2.02-1.32,3.29c.28,1.16,1.14,2.11,2.17,2.68,1.89,1.04,4.51,1.13,6.52,.42,2.13-.74,4.7-2.94,3.5-5.47-.62-1.3-2.15-1.9-3.5-1.46s-2.16,1.62-2.87,2.74l2.8,.76c-.02-.25,.05-.56,0-.91-.05-.42-.22-.81-.5-1.12-.56-.61-1.41-.82-2.2-.56-1.26,.42-2.06,1.56-2.47,2.77l2.95,.4c0-.58,.04-1.16,.14-1.74l-2.95-.4c0,1.08-.09,2.19,.01,3.26,.14,1.45,1.31,2.51,2.8,2.09,.96-.27,1.85-1.08,2.55-1.76,.74-.73,1.38-1.59,1.91-2.49l-2.74-.36c.11,.68,0,1.41-.03,2.1-.04,.82-.13,1.88,.51,2.51,.88,.88,2.09,.44,2.71-.47,.43-.62,.79-1.29,1.16-1.94l-2.74-.36,1.23,3.93c.22,.71,.9,1.19,1.65,1.07s1.22-.71,1.3-1.47c.07-.69,.08-1.37,.04-2.06l-2.95,.4c.05,.27,.07,.51,.08,.79,0,.33,.05,.04-.03,.32-.05,.21-.08,.08-.01,.07,.07-.09,.16-.15,.29-.18l-.14,.04c.17,.06,0-.01-.12,0-.38,0-.77,0-1.15,0h-2.15c-.32,0-.73,.02-1-.01-.02,0-.24-.14-.09-.03,.17,.12-.19-.22-.19-.21l-1.06,2.56c.76,.04,1.52,.05,2.29,.03v-3c-.47,.02-.94,.04-1.41,.01-.27-.02-.13,0-.4-.04-.13-.03-.26-.06-.39-.1-.25-.08-.26-.08-.02-.01l.54,.54,.06,.11v.8l-.59,.58c.77-.25,1.27-1.04,1.05-1.85-.21-.76-1.07-1.29-1.85-1.05-.71,.23-1.3,.69-1.49,1.43-.21,.81,.13,1.66,.85,2.08,1.04,.61,2.5,.53,3.66,.49,.81-.03,1.5-.67,1.5-1.5s-.69-1.52-1.5-1.5c-.76,.02-1.52,0-2.29-.03-.58-.03-1.16,.4-1.37,.92-.24,.59-.1,1.16,.31,1.64,.84,.99,1.96,1.13,3.18,1.13,1.07,0,2.15,0,3.22,0,1.14,0,2.21-.25,2.83-1.31s.48-2.35,.29-3.53c-.12-.73-.98-1.17-1.65-1.07s-1.35,.72-1.3,1.47c.04,.69,.03,1.37-.04,2.06l2.95-.4-1.23-3.93c-.38-1.2-2.08-1.51-2.74-.36-.2,.36-.41,.72-.62,1.07-.11,.18-.21,.35-.32,.53l-.11,.17c-.13,.21-.14,.23-.05,.06l.66-.39-.1,.03,1.16,.15-.09-.05,.54,.54c.13,.31,.13,.46,.12,.04,0-.14,0-.28,0-.42,.01-.35,.04-.7,.06-1.05,.04-.73,0-1.43-.12-2.16-.22-1.33-2.13-1.38-2.74-.36s-1.44,2.02-2.34,2.64c-.1,.07-.27,.13-.35,.22-.1,.12,.03-.04,.13,0,.55,.05,.83,.25,.86,.61,0,.09,0,.05,0-.13,0-.2,0-.39,0-.59v-2.34c0-.74-.56-1.39-1.29-1.47-.67-.08-1.52,.33-1.65,1.07-.14,.84-.23,1.68-.24,2.54-.02,1.74,2.42,1.97,2.95,.4,.13-.38-.08,.07,.11-.27,0,0,.26-.37,.13-.22,.03-.04,.33-.34,.15-.16,.14-.13,.12-.01,.03-.02l-.76-.2c-.32-.15-.24-1.32-.37-.66-.04,.19-.05,.36-.03,.55,.12,1.46,1.96,2.08,2.8,.76,.31-.5,.7-1.16,1.15-1.39-.21,.11,.21-.13-.02-.02,.24-.12,.1,.08-.03-.05-.08-.1-.06-.07,.07,.06l-.05-.04s-.08-.07-.06-.12c-.24,.46-.39,.72-.9,1.02-.56,.32-1.28,.54-1.85,.6-1.18,.13-2.73,.03-3.52-.75-.15-.15-.24-.3-.28-.46,0-.04-.03-.11,0-.15-.02,.03-.09,.15-.1,.18,.03-.06,.05,0,.13-.04-.29,.18-.43-.69-.42-.69,0-.02,0-.04,0-.05-.08,.08-.17,.16-.25,.23l2.36,1.82c.09-.12,.33-.33,.4-.38,.67-.46,.97-1.32,.54-2.05-.39-.66-1.38-1-2.05-.54h0Z"/><path class="c" d="M91.74,60.35c-.18,.45-.14,.95-.06,1.41,.07,.39,.26,.76,.5,1.07,.71,.91,1.98,1.16,2.98,.55,.59-.36,1.1-.96,1.08-1.68-.03-.92-.73-1.49-1.56-1.68-.87-.2-1.87-.28-2.61,.29-.62,.48-.91,1.31-.69,2.08s.93,1.45,1.78,1.42,1.46-.67,1.5-1.5c.06-1.2-1.06-2.13-2.15-2.35-.47-.1-.94-.12-1.38,.14-.52,.3-.78,.84-.81,1.42s.06,1.1,.29,1.61c.42,.91,1.4,1.28,2.34,1.31,.47,.01,.95-.05,1.42-.12,.36-.06,.71-.17,1.07-.25l-.4,.05c.07,0,.14-.01,.21,0l-.4-.05s.09,.02,.14,.03l-.36-.15s.06,.03,.08,.05l-.3-.23s.08,.07,.11,.11l-.23-.3s.06,.09,.08,.14l-.15-.36c.02,.06,.03,.1,.04,.16l-.05-.4s0,.08,0,.11l.05-.4v.06c-.1,.39-.07,.8,.14,1.16,.18,.31,.54,.61,.9,.69,.38,.09,.81,.07,1.16-.15,.32-.2,.61-.51,.69-.9,.12-.55,.07-1.1-.23-1.59-.27-.45-.74-.82-1.26-.92s-.95,0-1.43,.12c-.26,.07-.52,.12-.79,.16l.4-.05c-.37,.05-.76,.08-1.13,.03l.4,.05c-.11-.02-.22-.04-.33-.08l.36,.15c-.07-.03-.14-.07-.21-.12l.3,.23c-.05-.04-.1-.09-.14-.14l.23,.3c-.04-.06-.08-.13-.11-.2l.15,.36c-.04-.1-.06-.21-.07-.32l.05,.4c-.02-.18-.02-.35-.01-.53l-.05,.4v-.05l-.14,.36,.02-.04-.23,.3,.04-.03-.66,.39h.05l-.4,.04h.05l-.4-.05c.18,.03,.35,.07,.52,.14l-.36-.15c.14,.06,.27,.13,.39,.22l-.3-.23c.05,.05,.1,.09,.15,.15l-.23-.3s.06,.09,.08,.14l-.15-.36c.02,.05,.03,.1,.04,.16l-.05-.4s0,.08,0,.11l1.5-1.5h-.04l.4,.05s-.05,0-.08-.02l.36,.15s-.05-.03-.07-.05l.3,.23s-.04-.04-.06-.07l.23,.3s-.04-.06-.05-.09l.15,.36c-.02-.05-.03-.1-.05-.15l.05,.4c0-.06,0-.1,0-.16l-.05,.4s.02-.07,.03-.1l-.15,.36s.04-.08,.07-.13l-.23,.3s.04-.04,.06-.06l-.3,.23s.07-.05,.11-.07l-.36,.15c.06-.02,.11-.04,.17-.05l-.4,.05c.25-.03,.5,0,.75,.04l-.4-.05c.21,.03,.41,.08,.6,.15l-.36-.15s.06,.03,.08,.05l-.3-.23,.03,.04-.23-.3,.02,.04-.2-.76v.05l.05-.4-.02,.04,.15-.36-.03,.04,.23-.3c-.05,.06-.11,.12-.17,.17l.3-.23c-.08,.06-.16,.11-.24,.15l.36-.15c-.07,.03-.14,.05-.21,.06l.4-.05c-.07,0-.14,.01-.21,0l.4,.05c-.07-.01-.14-.03-.2-.06l.36,.15s-.09-.05-.13-.08l.3,.23c-.06-.05-.11-.1-.16-.16l.23,.3c-.06-.08-.11-.17-.15-.26l.15,.36c-.04-.12-.07-.23-.09-.35l.05,.4c-.01-.11,0-.21,0-.31l-.05,.4c.01-.09,.04-.17,.07-.25,.13-.34,.03-.85-.15-1.16s-.54-.61-.9-.69c-.38-.09-.81-.07-1.16,.15s-.54,.51-.69,.9h0Z"/><path class="c" d="M90.43,63.75c1.93,0,1.93-3,0-3s-1.93,3,0,3h0Z"/><path class="c" d="M90.23,64.19c1.93,0,1.93-3,0-3s-1.93,3,0,3h0Z"/><path class="c" d="M90.29,64.58c1.93,0,1.93-3,0-3s-1.93,3,0,3h0Z"/><path class="c" d="M90.62,64.8c1.93,0,1.93-3,0-3s-1.93,3,0,3h0Z"/><path class="c" d="M91.02,65.06c1.93,0,1.93-3,0-3s-1.93,3,0,3h0Z"/><path class="c" d="M103.36,38.97c1.93,0,1.93-3,0-3s-1.93,3,0,3h0Z"/><path class="c" d="M103.73,39.5c1.93,0,1.93-3,0-3s-1.93,3,0,3h0Z"/></svg>