<?xml version="1.0" encoding="UTF-8"?><svg id="a" xmlns="http://www.w3.org/2000/svg" viewBox="0 0 219.7 87.1"><defs><style>.b{fill:#fff;}.c,.d{fill:#fbd008;}.d{stroke:#fff;stroke-miterlimit:10;}</style></defs><g><path class="d" d="M79.58,43.55c-5.61-2.12-11.21-4.24-16.82-6.36-3.83-1.55-6.6-3.37-8.41-4.75-2.06-1.56-3.08-2.69-3.77-3.58-1.39-1.8-2.81-3.63-2.64-6.02,.19-2.57,2.1-4.3,2.82-4.9-3.51,2.05-4.64,4.3-5.08,5.65-.76,2.34-.11,4.1,1.13,10.36,.63,3.15,1.06,5.72,1.32,7.34l.75,9.6,.19,3.58c2.06-.56,5.27-1.43,9.23-2.45,6.33-1.63,7.81-1.92,10.17-2.75,2.74-.96,6.65-2.63,11.11-5.73h0Z"/><path class="d" d="M50.77,17.94c4.27-3.51,13.99-7.89,14.87-8.28,3.2-1.67,7.95-3.83,13.99-5.42,4.45-1.17,7.82-1.53,14.39-2.21,7.98-.82,13.96-1.02,22.88-1.27,8.41-.24,12.61-.36,15.39-.14,7.78,.6,13.47,2.14,20.19,3.95,9.51,2.57,14.83,4.9,16.9,5.84,9.61,4.37,12.54,7.68,13.93,10.92,.53,1.23,1.54,3.67,.61,6.03-.78,1.98-2.55,2.97-6.07,4.89-1.72,.93-3.99,2.03-6.78,3.01-4.19-2.76-9.87-6.06-16.95-9.04-3.28-1.38-9.02-3.76-16.95-5.46-2.21-.48-11.18-2.31-23.16-1.88-5.78,.21-9.89,.86-16.38,1.88-7.68,1.21-12.1,1.91-18.07,3.95-7.9,2.7-12.95,5.84-14.69,6.97-2.31,1.5-4.15,2.91-5.45,3.97-3.79-1.83-6.28-4.01-7.72-5.49-2.19-2.23-2.98-3.85-3.37-5.27-.21-.77-.5-1.92-.17-3.31,.36-1.52,1.35-2.62,2.59-3.64h.02Z"/><path class="d" d="M138.37,44.68c2.83-.47,14.22-2.41,24.57-6.07,1.16-.41,4.19-1.65,10.23-4.14,0,0,.3-.12,6.27-3.09,1.68-.84,2.69-1.35,3.55-2.52,1.17-1.58,1.3-3.32,1.32-3.96,.05-2.12-.89-3.65-1.95-5.38-.95-1.55-1.97-2.67-2.69-3.38,1.16,.7,2.47,1.74,3.6,3.25,1.39,1.85,1.93,3.68,2.26,4.8,.19,.65,.31,1.2,.39,1.6,.03,1.23,.03,3.05-.17,5.25-.22,2.39-.49,3.27-.91,5.84-1.04,6.29-.68,8.7-1.56,12.39-.07,.31-.47,1.9-.99,4.16l-.42,1.84c-3.34-.75-6.68-1.51-10.03-2.26-1.78-.42-12.66-2.99-13.13-3.11-8.71-2.06-9.04-2.14-10.17-2.12-2.17,.05-4.56,.45-7.2-.85-1.39-.68-2.36-1.59-2.97-2.26h0Z"/><path class="d" d="M87.3,43.08c-1.18-.2-2.93-.35-4.99,0-1.55,.26-2.82,.73-3.75,1.16-2.08,1.37-5.31,3.26-9.54,4.84-2.51,.94-3.83,1.19-9.99,2.76-6.65,1.68-9.97,2.53-12.97,3.44-5.77,1.75-5.86,2.26-12.99,4.75-7.31,2.55-8.93,2.61-16.66,5.08-3.83,1.22-9.32,3.09-15.91,5.74v15.64l23.63-4.81,19.2-2.64,21.56-3.39c4.24-.38,9.05-1.14,14.22-2.54,2.13-.58,4.14-1.21,6.02-1.88,.78-1.97,2.19-4.84,4.71-7.72,2.18-2.5,4.44-4.14,6.12-5.18l5.18-2.54c-1.88-1.02-4.05-2.36-6.31-4.14-2.14-1.68-3.88-3.38-5.27-4.9l-2.26-3.67h0Z"/><path class="d" d="M138.37,44.68l2.43,1.98c.62,.32,1.56,.74,2.76,1.03,2.3,.55,3.06,0,5.59,.11,1.1,.05,3.33,.48,7.7,1.67,3.16,.86,6.39,1.49,9.57,2.26,3.62,.88,8.82,2.1,15.44,3.54,2.93,.64,5.87,1.29,8.8,1.93l7.54,1.22,20.99,4.05-.56,21.37-23.63-1.41-15.06-1.41c-7.29-.29-12.97-.85-16.85-1.32-2.57-.31-4.96-.65-7.91-1.41-3.25-.84-5.88-1.84-7.72-2.64l-4.99-2.45c-1.05,.17-2.47,.26-4.1,0-.72-.12-1.37-.29-1.93-.47,1.31-.51,4.59-2,7.06-5.55,2.42-3.49,2.66-6.94,2.73-8.19,.1-1.73,.28-5.02-1.79-8.19-1.09-1.67-2.41-2.71-3.29-3.29l-2.78-2.82h0Z"/><path class="d" d="M118.81,31.76c-.45-.51-.88-.86-1.55-1.77-.83-1.11-.87-1.51-1.34-1.79-.55-.33-1.55-.4-3.53,.8-.92,.83-2.39,2.05-4.38,3.25-.98,.59-1.67,.93-4.8,2.4-3.86,1.81-5.79,2.72-6.07,2.82-6,2.19-7.13,2.47-7.13,2.47-.69,.17-2.12,.51-2.61,1.62-.24,.55-.18,1.12-.09,1.51,.52,.99,1.25,2.27,2.26,3.67,0,0,.93,1.29,1.93,2.4,2.73,3.03,6.18,4.88,8.61,6.17,3.05,1.61,2.74,1.26,6.28,2.92,4.24,1.98,4.93,2.41,6.73,3.07,2.63,.96,4.87,1.46,6.33,1.74,.29-1.59,.7-4.04,.99-7.06,.1-1.07,.34-3.74,.42-11.3,.02-2.22,.04-5.29,0-8.97-.57-1.99-1.38-3.2-2.05-3.95h0Z"/><path class="d" d="M100.69,55.62c-1.18,.62-2.82,1.52-4.73,2.71-1.92,1.19-2.9,1.81-4.01,2.77-2.02,1.74-3.22,3.45-3.88,4.41-.72,1.05-2,3.06-2.93,5.72-.38,1.09-.52,1.81-.78,3.25-.29,1.61-.25,2.14,0,2.61,.43,.8,1.32,1.1,1.84,1.27,2.5,.81,3.75,1.21,6.14,1.62,1.96,.34,1.01,.37,6.71,1.91,1.63,.44,3.28,.81,6.57,1.55,2.08,.47,4.01,.88,6.21,.4,.96-.21,1.72-.54,2.33-1.18,.78-.81,.99-1.79,1.06-2.26l.56-1.62s-.27,.64-.92,.78c-.52,.11-.92-.16-.99-.21,.16-.59,.44-1.57,.85-2.75,.54-1.58,.93-2.39,1.84-4.66,.65-1.62,.99-2.47,1.34-3.46,.45-1.27,1.04-3.11,1.55-5.44l-5.24-1.36-6.14-2.65-5.19-2.35-2.19-1.06h0Z"/><path class="d" d="M118.16,31.06c1.17,.11,2.91,.43,4.75,1.4,1.13,.6,1.87,1.22,3.32,2.47,2.73,2.38,4.8,4.27,5.15,4.59,1.47,1.34,3.64,3.17,6.57,5.15,1.37,1.16,2.74,2.33,4.11,3.49,.78,.63,2.02,1.79,2.95,3.6,.91,1.77,1.1,3.31,1.23,4.48,.09,.8,.28,3.1-.48,5.94-.77,2.88-2.11,4.79-2.47,5.27-1.55,2.13-3.26,3.31-3.92,3.74-1.39,.9-2.58,1.32-3.68,1.71-2.23,.79-3.31,.81-5.44,1.27-5.84,1.27-9.39,3.62-12.09,3.95-.59,.07-1.22,.06-1.92,.49-.64,.4-.98,.94-1.62,.94-.32,0-.58-.13-.74-.23,.32-1.07,.83-2.68,1.54-4.6,.79-2.14,1.29-3.18,1.78-4.4,1.55-3.82,2.15-7.1,2.51-9.03,.39-2.11,.53-4.3,.81-8.68,.34-5.28,.19-6.84,.38-11.76,.01-.27,.05-1.32,0-2.72-.05-1.17-.07-1.85-.23-2.61-.17-.82-.56-2.07-1.58-3.47l-.91-1h-.02Z"/></g><path class="b" d="M102.07,55.52c1.93,0,1.93-3,0-3s-1.93,3,0,3h0Z"/><path class="b" d="M102.07,55.49c1.93,0,1.93-3,0-3s-1.93,3,0,3h0Z"/><path class="b" d="M102,55.49c1.93,0,1.93-3,0-3s-1.93,3,0,3h0Z"/><path class="b" d="M102,55.49c1.93,0,1.93-3,0-3s-1.93,3,0,3h0Z"/><path class="b" d="M102.04,55.45c1.93,0,1.93-3,0-3s-1.93,3,0,3h0Z"/><path class="b" d="M102.07,55.45c1.93,0,1.93-3,0-3s-1.93,3,0,3h0Z"/><path class="b" d="M104.7,54.44c2.91,.03,5.85-.47,8.56-1.52,.41-.16,.83-.3,1.18-.57,.55-.43,.76-1.11,.63-1.78-.17-.85-1.02-1.4-1.69-1.86-1.21-.82-2.6-1.39-3.95-1.89-.81-.3-1.63-.51-2.5-.57-.43-.03-.9,0-1.31,.1-.61,.14-1.03,.49-1.4,.99-.47,.63-.13,1.7,.54,2.05,.78,.41,1.55,.14,2.05-.54-.59,.36-.72,.49-.39,.39-.14,.02-.16,.02-.04,0,.16,0,.32-.01,.48,0,.08,0,.16,0,.24,.02-.14-.02-.11-.02,.07,.02,.16,.03,.31,.07,.47,.11,.65,.17,1.27,.42,1.89,.68,.1,.04,.1,.04,0,0,.07,.03,.14,.06,.22,.09,.17,.07,.33,.15,.5,.23,.28,.13,.56,.28,.84,.43s.54,.31,.8,.49c.13,.09,.26,.18,.38,.27-.1-.07-.08-.05,.06,.06,.18,.19,.14,.1-.13-.26v-.8l.06-.15,.54-.54c-.13,.08-.14,.09,0,.03-.1,.04-.2,.08-.3,.12-.15,.06-.31,.12-.46,.17-.36,.13-.72,.25-1.09,.36-.68,.2-1.37,.38-2.06,.51-.78,.15-1.16,.21-1.87,.28-.76,.07-1.52,.1-2.29,.09s-1.54,.69-1.5,1.5,.66,1.49,1.5,1.5h0Z"/><path class="b" d="M94.3,43.74c1.93,0,1.93-3,0-3s-1.93,3,0,3h0Z"/><path class="b" d="M93.54,43.57s.04,.02,.06,.04l-.3-.23s.06,.06,.09,.1l-.23-.3c.06,.08,.1,.16,.16,.24,.08,.11,.19,.28,.31,.39,.05,.05,.13,.1,.17,.13,.03,.02,.11,.1,.17,.13,.01,0,.02,.01,.03,.02,.12,.06,.26,.12,.39,.16,.03,0,.05,.02,.08,.02,.12,.02,.29,.05,.42,.06,.01,0,.03,0,.04,0,.18,0,.38-.02,.55-.08s.34-.12,.49-.21c.12-.08,.23-.18,.35-.27,.03-.02,.05-.05,.08-.07,.04-.04,.08-.08,.11-.13,.11-.14,.23-.29,.33-.43,.01-.02,.03-.04,.04-.06,0-.01,.01-.03,.02-.04,.06-.11,.12-.26,.16-.38,0-.03,.02-.05,.02-.08-.05,.29,.06-.3,.05-.42,0-.07-.02-.15-.03-.22,0-.07-.01-.15-.03-.22-.03-.14-.1-.29-.18-.41-.06-.09-.17-.24-.25-.32h0c-.1-.09-.2-.17-.31-.25-.07-.04-.14-.07-.22-.1s-.16-.08-.25-.1c-.26-.05-.52-.08-.79-.1-.14-.01-.28-.02-.42,0s-.29,.03-.42,.06c-.02,0-.04,0-.05,.01h-.03l-.02,.02-.36,.15-.03,.02c-.06,.04-.11,.08-.17,.13-.06,.04-.11,.08-.16,.13l-.02,.02-.23,.3s-.01,.02-.02,.03c-.11,.17-.17,.36-.18,.56-.04,.2-.04,.4,.03,.6,.05,.2,.14,.37,.27,.51,.11,.16,.25,.29,.42,.39l.36,.15c.27,.07,.53,.07,.8,0l.36-.15c.23-.13,.4-.31,.54-.54,0-.01,.01-.02,.02-.03l-.23,.3s.02-.02,.04-.03l-.3,.23s.03-.02,.04-.02l-.36,.15s.07-.02,.1-.03l-.4,.05c.22-.03,.46,0,.69,.03l-.4-.05c.07,0,.14,.02,.2,.04l-.36-.15s.03,.01,.05,.02l-.3-.23s.02,.01,.03,.02l-.23-.3s.01,.02,.02,.03l-.15-.36s0,.02,.01,.04l-.05-.4s0,.03,0,.04l.05-.4s-.01,.05-.02,.08l.15-.36c-.04,.09-.11,.17-.17,.25l.23-.3c-.06,.07-.12,.14-.19,.2l.3-.23s-.08,.05-.13,.07l.36-.15s-.09,.03-.14,.04l.4-.05s-.08,0-.12,0l.4,.05s-.05-.01-.08-.02l.36,.15s-.05-.03-.08-.04l.3,.23s-.07-.06-.09-.1l.23,.3c-.05-.07-.1-.15-.15-.22-.2-.29-.39-.52-.7-.69-.17-.11-.36-.17-.56-.18-.2-.04-.4-.04-.6,.03-.2,.05-.37,.14-.51,.27-.16,.11-.29,.25-.39,.42l-.15,.36c-.07,.27-.07,.53,0,.8l.15,.36c.13,.23,.31,.4,.54,.54h0Z"/><path class="c" d="M94.67,44.04c1.93,0,1.93-3,0-3s-1.93,3,0,3h0Z"/><path class="c" d="M93.93,40.17c-.21,.07-.42,.14-.64,.22-.32,.11-.57,.23-.81,.46-.41,.39-.54,1.02-.4,1.56,.22,.83,1.05,1.31,1.82,1.55,.18,.06,.37,.1,.55,.13,.31,.05,.63,.12,.95,.12,.41,0,.87-.09,1.21-.33,.27-.18,.48-.37,.65-.65,.19-.32,.22-.58,.27-.94,0-.21-.04-.4-.13-.58-.06-.19-.16-.35-.31-.48-.26-.26-.69-.46-1.06-.44s-.79,.14-1.06,.44l-.23,.3c-.14,.23-.2,.49-.2,.76v.04l.05-.4s-.01,.05-.02,.07l.15-.36s-.03,.06-.05,.09l.23-.3s-.06,.07-.1,.1l.3-.23s-.08,.05-.13,.07l.36-.15c-.05,.02-.1,.03-.15,.04l.4-.05c-.13,.02-.26,0-.4,0l.4,.05c-.38-.05-.76-.12-1.11-.26l.36,.15c-.13-.06-.26-.13-.38-.22l.3,.23s-.08-.06-.12-.1l.23,.3s-.03-.04-.04-.06l.15,.36v-.03l.04,.4v-.03l-.06,.4v-.03l-.15,.36,.02-.03-.23,.3,.02-.02-.3,.23s.03-.02,.05-.03l-.36,.15c.24-.09,.47-.16,.71-.24,.37-.13,.69-.34,.9-.69,.19-.32,.27-.8,.15-1.16s-.34-.71-.69-.9-.77-.28-1.16-.15h0Z"/><path class="c" d="M95.49,40.59c-.29-.14-.5-.22-.82-.23-.29,0-.58,.08-.83,.22-.39,.22-.7,.61-.82,1.04-.09,.32-.13,.74-.11,1.08,.05,.61,.24,1.14,.67,1.59,.34,.35,.75,.55,1.2,.72,.64,.24,1.38,.23,2.03,.08s1.3-.52,1.76-1c.27-.29,.44-.66,.44-1.06,0-.37-.16-.81-.44-1.06s-.66-.46-1.06-.44-.79,.15-1.06,.44c-.07,.08-.15,.14-.23,.21l.3-.23c-.15,.12-.32,.21-.49,.29l.36-.15c-.18,.07-.36,.12-.55,.15l.4-.05c-.21,.03-.41,.03-.62,0l.4,.05c-.18-.03-.34-.07-.51-.14l.36,.15c-.13-.06-.25-.12-.37-.21l.3,.23c-.06-.05-.12-.11-.17-.17l.23,.3c-.04-.05-.07-.11-.1-.17l.15,.36c-.03-.08-.05-.16-.07-.24l.05,.4c-.02-.2,0-.4,.02-.6l-.05,.4s.01-.09,.03-.13l-.15,.36s.02-.05,.04-.08l-.23,.3s.03-.04,.06-.05l-.3,.23,.03-.02-.36,.15h.04l-.4,.04h.04l-.4-.06h.04l-.36-.15,.03,.02c.37,.18,.75,.26,1.16,.15,.35-.1,.73-.36,.9-.69,.18-.35,.28-.77,.15-1.16-.12-.36-.34-.73-.69-.9h0Z"/><path class="c" d="M94.37,40.6l-.15,.26c-.11,.17-.17,.36-.18,.56-.04,.2-.04,.4,.03,.6,.05,.2,.14,.37,.27,.51,.11,.16,.25,.29,.42,.39l.36,.15c.27,.07,.53,.07,.8,0l.36-.15c.23-.13,.4-.31,.54-.54l.15-.26c.11-.17,.17-.36,.18-.56,.04-.2,.04-.4-.03-.6-.05-.2-.14-.37-.27-.51-.11-.16-.25-.29-.42-.39l-.36-.15c-.27-.07-.53-.07-.8,0l-.36,.15c-.23,.13-.4,.31-.54,.54h0Z"/><path class="c" d="M105.17,46.24c-.5,.26-.96,.61-1.36,1.01-1.16,1.18,.37,3.33,1.82,2.36,1.12-.75,1.99-2,1.24-3.36-.66-1.19-2.42-1.38-3.6-1.01-1.33,.42-2.28,1.64-2,3.07,.22,1.14,1.15,2.04,2.18,2.52,2.13,1,4.78,1.07,7.05,.57,1.16-.25,2.32-.71,3.23-1.49,.96-.82,1.58-2.18,1.04-3.4-.61-1.37-2.21-1.84-3.59-1.58-1.3,.25-2.28,1.2-3.1,2.18l2.56,1.06c-.04-.7,.06-1.34-.55-1.93-.57-.55-1.39-.71-2.15-.52-1.12,.28-2.12,1.13-2.59,2.19l2.8,.76c0-.49,.05-.94,.16-1.42l-2.95-.4c0,1.03-.19,2.25,.09,3.25,.35,1.26,1.63,1.82,2.84,1.51,1.81-.46,3.54-1.98,4.67-3.41l-2.51-.66c.28,1.31-.7,3.39,.79,4.26,1.69,.99,2.93-1.22,3.76-2.33l-2.74-.36,1.39,3.34c.66,1.6,2.73,1.32,2.95-.4,.07-.59,.09-1.16,.04-1.75l-2.95,.4c.02,.1,.11,.77,.09,.75-.03-.02,.04-.09,.06-.1,.23-.1,.23-.05,.02-.06-.56,0-1.31,0-1.94,0h-2.17c-.42,0-1.11,.14-1.45-.15l-1.06,2.56c.86,.03,1.71,.04,2.57,.03v-3c-.96,.03-2,.11-2.91-.21l.66,.39-.12-.11,.39,.66-.03-.13v.8l.04-.13-.39,.66c-.37,.15-.43,.19-.18,.12,1.88-.45,1.08-3.35-.8-2.89-.68,.16-1.32,.61-1.53,1.31-.26,.88,.15,1.76,.98,2.14,1.16,.53,2.65,.43,3.89,.39,1.93-.06,1.94-3.04,0-3-.86,.02-1.71,0-2.57-.03-1.26-.05-2.04,1.7-1.06,2.56s1.97,1.02,3.21,1.03c1.17,0,2.33,0,3.5,0s2.28,0,3.12-.89c.92-.98,.83-2.3,.57-3.51-.35-1.63-3.08-1.3-2.95,.4,.05,.59,.03,1.17-.04,1.75l2.95-.4-1.39-3.34c-.52-1.25-1.93-1.44-2.74-.36-.18,.24-.37,.48-.55,.71-.1,.12-.2,.24-.29,.36-.06,.07-.29,.26-.19,.22l1.16-.15-.13-.04,1.05,1.05c-.14-.38,0-1.04,.03-1.49,.04-.63,0-1.25-.13-1.87-.22-1.03-1.81-1.54-2.51-.66-.76,.96-1.64,1.76-2.71,2.35-.12,.06-.23,.13-.35,.19-.27,.14-.11,0-.2,.08-.09,.02-.11,.03-.04,.02,.34-.06,.61,.14,.81,.59-.04,.05,0,.02,0-.11,.1-.75,0-1.59,0-2.35,0-1.66-2.58-2.08-2.95-.4-.16,.73-.25,1.47-.27,2.22-.02,1.4,2.17,2.16,2.8,.76,.13-.29,.21-.46,.43-.63,.26-.21-.25,.24,.2-.12h-.03c.42-.09,.26-.15-.48-.18l-.39-.66c.01-.31,0-.33-.02-.05-.03,.13-.04,.26-.01,.4,.04,.6,.35,1.14,.92,1.37,.52,.21,1.25,.15,1.64-.31,.41-.49,.84-1.08,1.44-1.33,.08-.03,.29-.09,.48-.05-.16-.04,.05,0,.08,.07l-.05-.02c-.12-.11-.17-.25-.16-.4-.15-.15,.14-.15-.1,.03-.04,.03-.11,.12-.14,.15-.23,.21-.58,.37-.86,.48-.63,.25-1.32,.41-2,.48-1.28,.12-2.84,.12-4.02-.44-.26-.12-.47-.29-.62-.42-.14-.12-.03-.13-.06-.11,0,0-.06,.38-.05,.4,.04,.13-.24-.05,.03,.03,.03,0,.29-.03,.33-.03,.04,0,.08,0,.12,.03,.48,.16,.35-.21-.39-1.11v-.04c.08-.06,.04-.03-.11,.08l1.82,2.36c.24-.24,.44-.38,.75-.55,.72-.38,.93-1.38,.54-2.05-.43-.73-1.33-.91-2.05-.54h0Z"/><path class="c" d="M103.48,50.99c-.27,.54-.37,1.11-.22,1.7,.11,.43,.36,.87,.7,1.17,.84,.75,2.03,.82,3,.29,.66-.36,1.13-1.01,1.02-1.79-.11-.83-.8-1.3-1.58-1.44-.85-.15-1.87-.29-2.66,.18-.72,.43-1.05,1.28-.85,2.09s1.01,1.4,1.83,1.39,1.46-.68,1.5-1.5c.07-1.25-1.19-2.03-2.28-2.21-.48-.08-.96-.13-1.41,.14-.51,.31-.79,.81-.82,1.4-.02,.52,.06,1.04,.31,1.5,.52,.95,1.62,1.21,2.62,1.21,.88,0,1.72-.2,2.58-.32l-.4,.05c.11-.01,.21-.01,.31,0l-.4-.05s.09,.02,.13,.04l-.36-.15s.07,.04,.1,.06l-.3-.23s.06,.05,.09,.08l-.23-.3s.06,.09,.09,.15l-.15-.36v.05l-.04-.4s0,.07,0,.11l.05-.4v.06c-.22,.76,.24,1.66,1.03,1.85s1.63-.24,1.85-1.05c.3-1.14-.51-2.27-1.66-2.42-.69-.09-1.35,.13-2.03,.22l.4-.05c-.53,.07-1.08,.11-1.61,.04l.4,.05c-.12-.02-.24-.05-.35-.09l.36,.15c-.09-.04-.17-.08-.25-.14l.3,.23s-.08-.08-.12-.13l.23,.3c-.04-.06-.07-.11-.09-.17l.15,.36c-.02-.07-.04-.13-.05-.19l.05,.4c-.02-.15-.02-.3-.02-.46l-.05,.4v-.04l-.14,.36,.02-.04-.54,.54,.04-.03-.36,.15h.05l-.4,.05s.08,0,.13,.01l-.4-.05c.25,.03,.48,.1,.71,.19l-.36-.15c.12,.05,.23,.11,.34,.19l-.3-.23s.08,.08,.12,.13l-.23-.3s.04,.06,.05,.1l-.15-.36,.02,.05-.05-.4s0,.07,0,.11l1.5-1.5h-.05l.4,.05s-.07-.01-.1-.02l.36,.15s-.06-.03-.09-.05l.3,.23s-.05-.05-.07-.07l.23,.3s-.04-.06-.05-.09l.15,.36s-.02-.07-.03-.1l.05,.4s0-.07,0-.1l-.05,.4v-.05l-.14,.36s.03-.06,.05-.09l-.23,.3s.04-.05,.07-.07l-.3,.23s.08-.06,.13-.08l-.36,.15c.07-.03,.14-.04,.21-.06l-.4,.05c.33-.04,.67,0,.99,.04l-.4-.05c.2,.03,.41,.06,.6,.13l-.36-.15,.04,.02-.3-.23,.04,.03-.23-.3,.02,.04-.2-.76v.04l.21-.76-.02,.04,.23-.3s-.08,.08-.13,.11l.3-.23c-.09,.06-.18,.11-.27,.15l.36-.15c-.1,.04-.2,.07-.3,.08l.4-.05c-.1,.01-.2,.01-.31,0l.4,.05c-.08-.01-.16-.03-.24-.06l.36,.15c-.07-.03-.14-.07-.2-.12l.3,.23c-.06-.05-.11-.1-.16-.16l.23,.3c-.05-.06-.08-.13-.12-.2l.15,.36c-.03-.07-.05-.14-.07-.22l.05,.4c-.01-.08-.01-.15,0-.22l-.05,.4c.01-.08,.03-.14,.06-.22l-.15,.36,.03-.05c.18-.36,.26-.76,.15-1.16-.1-.35-.36-.73-.69-.9-.68-.36-1.67-.21-2.05,.54h0Z"/><path class="c" d="M101.67,54.52c1.93,0,1.93-3,0-3s-1.93,3,0,3h0Z"/><path class="c" d="M101.44,54.89c1.93,0,1.93-3,0-3s-1.93,3,0,3h0Z"/><path class="c" d="M101.52,55.23c1.93,0,1.93-3,0-3s-1.93,3,0,3h0Z"/><path class="c" d="M101.89,55.41c1.93,0,1.93-3,0-3s-1.93,3,0,3h0Z"/><path class="c" d="M102.33,55.63c1.93,0,1.93-3,0-3s-1.93,3,0,3h0Z"/><path class="c" d="M116.22,33.45c1.93,0,1.93-3,0-3s-1.93,3,0,3h0Z"/><path class="c" d="M116.63,33.89c1.93,0,1.93-3,0-3s-1.93,3,0,3h0Z"/></svg>