<?xml version="1.0" encoding="UTF-8"?><svg id="a" xmlns="http://www.w3.org/2000/svg" viewBox="0 0 171.2 159.99"><defs><style>.b{fill:#219ebc;stroke:#fff;stroke-miterlimit:10;}</style></defs><polygon class="b" points="2.74 15.76 85.57 .51 168.4 10.19 118.23 22.58 84.08 31.01 2.74 15.76"/><path class="b" d="M121.82,33.55c3.37,11.88,4.85,22.86,5.36,32.32-3.82,3.4-8.71,7.17-14.77,10.65-9.72,5.6-18.85,8.39-25.63,9.87-5.04-.9-11.92-2.69-19.4-6.48-9.3-4.71-15.71-10.58-19.61-14.77,.6-10.03,1.67-20.58,3.36-31.58,.44-2.87,.91-5.7,1.41-8.47l31.54,5.91,34.15-8.43c1.28,3.43,2.49,7.09,3.59,10.97h0Z"/><ellipse class="b" cx="85.6" cy="10.4" rx="5.36" ry="2.18"/><path class="b" d="M136.62,14.32c.91,.21,2.12,.54,2.83,1.58,.42,.62,.56,1.27,.54,1.63-.21,5.08-.42,10.17-.64,15.25-.21,.21-.84,.9-1,2-.16,1.15,.31,2.02,.45,2.27-.67,.65-1.7,1.86-2.09,3.63-.34,1.54-.04,2.8,.27,4.09,.39,1.6,.99,2.83,1.45,3.63l-.27,7.54c-.38,.34-.92,.9-1.36,1.72-.55,1.03-.69,1.99-.73,2.54-.21,31.94-.42,63.89-.62,95.83,.8-1.32,1.6-2.65,2.39-3.97,.23,2.31,.64,5.33,1.29,5.36,.73,.03,1.36-3.77,1.79-3.71,.52,.08-.09,5.67,.51,5.78,.55,.1,1.57-4.56,2.24-4.47,.41,.06,.53,1.86,.52,4.24l-.41-98.06c.07-.6,.1-1.68-.36-2.91-.29-.77-.68-1.34-1-1.72l.09-7.9c.48-.73,1.17-2,1.45-3.72,.16-1.01,.33-3.04-.64-5.27-.7-1.62-1.71-2.68-2.36-3.27,.17-.23,.66-.96,.64-2-.02-.74-.3-1.28-.45-1.54l.72-15.08c-.16-.96-.53-2.27-1.54-3.35-1.35-1.44-3.19-1.8-8.73-2.13-4.31-.26-7.74-.31-8.53-.32-2.41-.04-5.51-.1-9.13-.21-7.73-.28-15.46-.57-23.19-.85l-1.32,.96,9,.42c6.64,.43,13.48,.74,20.5,.92,3.27,.08,6.49,.13,9.67,.15,1.61,.05,4.93,.22,7.98,.92l.04,.02Z"/></svg>