<?xml version="1.0" encoding="UTF-8"?><svg id="a" xmlns="http://www.w3.org/2000/svg" viewBox="0 0 200.54 117.51"><defs><style>.b{fill:#219ebc;stroke:#fff;stroke-miterlimit:10;}</style></defs><polygon class="b" points="2.74 18.46 100.24 .51 197.74 11.9 138.68 26.48 98.48 36.41 2.74 18.46"/><path class="b" d="M142.91,39.4c3.97,13.98,5.71,26.91,6.31,38.04-4.5,4-10.25,8.44-17.39,12.54-11.44,6.59-22.19,9.88-30.17,11.62-5.93-1.06-14.03-3.17-22.84-7.63-10.95-5.54-18.49-12.45-23.08-17.39,.71-11.81,1.97-24.22,3.96-37.17,.52-3.38,1.07-6.71,1.66-9.97l37.13,6.96,40.2-9.92c1.51,4.04,2.93,8.35,4.23,12.91h0Z"/><ellipse class="b" cx="100.27" cy="12.15" rx="6.31" ry="2.57"/><path class="b" d="M160.33,15.15c1.07,.15,2.5,.38,3.33,1.11,.49,.44,.66,.89,.64,1.14-.25,3.56-.49,7.14-.75,10.7-.25,.15-.99,.63-1.18,1.4-.19,.81,.36,1.42,.53,1.59-.79,.46-2,1.31-2.46,2.55-.4,1.08-.05,1.96,.32,2.87,.46,1.12,1.17,1.99,1.71,2.55l-.32,5.29c-.45,.24-1.08,.63-1.6,1.21-.65,.72-.81,1.4-.86,1.78-.25,22.41-.49,44.83-.73,67.24,.94-.93,1.88-1.86,2.81-2.79,.27,1.62,.75,3.74,1.52,3.76,.86,.02,1.6-2.65,2.11-2.6,.61,.06-.11,3.98,.6,4.06,.65,.07,1.85-3.2,2.64-3.14,.48,.04,.62,1.31,.61,2.97l-.48-68.8c.08-.42,.12-1.18-.42-2.04-.34-.54-.8-.94-1.18-1.21l.11-5.54c.57-.51,1.38-1.4,1.71-2.61,.19-.71,.39-2.13-.75-3.7-.82-1.14-2.01-1.88-2.78-2.29,.2-.16,.78-.67,.75-1.4-.02-.52-.35-.9-.53-1.08l.85-10.58c-.19-.67-.62-1.59-1.81-2.35-1.59-1.01-3.75-1.26-10.28-1.49-5.07-.18-9.11-.22-10.04-.22-2.84-.03-6.49-.07-10.75-.15-9.1-.2-18.2-.4-27.3-.6l-1.55,.67,10.59,.29c7.82,.3,15.87,.52,24.13,.65,3.85,.06,7.64,.09,11.38,.11,1.9,.04,5.8,.15,9.39,.65h.05Z"/></svg>