<?xml version="1.0" encoding="UTF-8"?><svg id="a" xmlns="http://www.w3.org/2000/svg" viewBox="0 0 114.84 114.84"><defs><style>.b{fill:#d62828;}</style></defs><path class="b" d="M57.44,17.48c1.65-2.98,4.74-7.66,9.95-11.53,1.92-1.43,6.06-4.44,12.23-5.55,1.74-.31,6.61-1.01,12.55,.78,1.88,.57,6,2.03,10.32,5.63,4.07,3.38,6.38,7.04,7.26,8.54,.59,1,2.52,4.4,3.82,9.39,.37,1.41,1.56,6.34,1.21,12.95-.41,7.63-2.66,13.12-4.27,16.94-1.07,2.53-3.27,7.31-9.56,15.8-6.28,8.48-11.89,14.24-14.69,17.08-6.88,6.99-16.52,16.4-28.83,27.33-12.5-11.16-22.62-21.16-30.25-29.04-5.68-5.87-12.25-12.91-18.53-23.56-3.68-6.24-6.55-12.48-7.9-20.21-1.28-7.33-.57-12.35-.32-13.88,.94-5.81,3.02-9.83,3.71-11.11,2.71-4.97,5.93-7.77,7.85-9.39,1.53-1.3,4.53-3.81,9.08-5.55C26.97-.14,31.9,.27,34.13,.48c2.14,.2,4.96,.5,8.34,2.06,3.48,1.62,5.84,3.79,7.26,5.12,1.97,1.84,3.32,3.56,4.2,4.7,1.51,1.94,2.66,3.72,3.5,5.12h0Z"/></svg>