<?xml version="1.0" encoding="UTF-8"?><svg id="a" xmlns="http://www.w3.org/2000/svg" viewBox="0 0 147.53 132.06"><defs><style>.b{fill:#d62828;}</style></defs><path class="b" d="M73.79,20.1c2.12-3.43,6.09-8.81,12.78-13.26,2.47-1.64,7.79-5.11,15.71-6.38,2.23-.36,8.49-1.16,16.12,.9,2.42,.65,7.71,2.33,13.26,6.47,5.23,3.89,8.2,8.1,9.33,9.82,.76,1.15,3.24,5.06,4.91,10.8,.47,1.62,2.01,7.29,1.55,14.89-.53,8.77-3.42,15.09-5.48,19.48-1.37,2.91-4.2,8.41-12.28,18.17-8.07,9.75-15.28,16.38-18.87,19.64-8.84,8.04-21.22,18.86-37.04,31.43-16.06-12.83-29.06-24.33-38.86-33.39-7.3-6.75-15.74-14.85-23.81-27.09-4.73-7.17-8.41-14.35-10.15-23.24-1.65-8.43-.73-14.2-.41-15.96,1.21-6.68,3.88-11.3,4.77-12.77,3.48-5.71,7.62-8.93,10.08-10.8,1.96-1.5,5.82-4.38,11.67-6.38C34.65-.16,40.99,.31,43.85,.55c2.75,.23,6.37,.57,10.72,2.37,4.47,1.86,7.5,4.36,9.33,5.89,2.53,2.12,4.26,4.09,5.4,5.4,1.94,2.23,3.42,4.28,4.49,5.89h0Z"/></svg>