<?xml version="1.0" encoding="UTF-8"?><svg id="a" xmlns="http://www.w3.org/2000/svg" viewBox="0 0 108.84 114"><defs><style>.b{fill:#fff;}.c{fill:#5eab77;}</style></defs><path class="c" d="M3.65,113.19l1.39-70.11H2.08l-2.08-2.38L15.45,21.78H48.08L68.74,0l19.96,21.14,8.68,.32,5.21,13.99,6.25,6.36v1.27l-2.78,3.18-1.04-.32-3.99-3.81c.4,23.86,.8,47.71,1.19,71.57-32.86-.17-65.72-.34-98.58-.51h0Z"/><rect class="b" x="11.81" y="88.19" width="7.99" height="19.44"/><rect class="b" x="22.74" y="88.19" width="7.47" height="19.44"/><rect class="b" x="46.8" y="87.88" width="11.29" height="26.12"/><rect class="b" x="66.84" y="86.97" width="8.51" height="20.66"/><rect class="b" x="77.6" y="86.97" width="8.85" height="20.66"/><rect class="b" x="89.05" y="86.97" width="8.33" height="20.66"/><rect class="b" x="75.34" y="50" width="7.99" height="16.14"/><rect class="b" x="64.58" y="50" width="7.99" height="16.14"/><rect class="b" x="53.64" y="50" width="8.16" height="16.14"/><rect class="b" x="17.19" y="52.08" width="8.33" height="16.14"/></svg>