<?xml version="1.0" encoding="UTF-8"?><svg id="a" xmlns="http://www.w3.org/2000/svg" viewBox="0 0 184.39 193.13"><defs><style>.b{fill:#fff;}.c{fill:#5eab77;}</style></defs><path class="c" d="M6.18,191.76l2.35-118.77H3.53l-3.53-4.04L26.17,36.9h55.29L116.46,0l33.82,35.82,14.7,.54,8.82,23.7,10.59,10.77v2.15l-4.71,5.39-1.76-.54-6.76-6.46c.67,40.42,1.35,80.83,2.02,121.25-55.67-.29-111.34-.58-167-.87h0Z"/><rect class="b" x="20" y="149.4" width="13.53" height="32.94"/><rect class="b" x="38.53" y="149.4" width="12.65" height="32.94"/><rect class="b" x="79.28" y="148.88" width="19.12" height="44.25"/><rect class="b" x="113.23" y="147.34" width="14.41" height="35"/><rect class="b" x="131.46" y="147.34" width="15" height="35"/><rect class="b" x="150.87" y="147.34" width="14.12" height="35"/><rect class="b" x="127.64" y="84.7" width="13.53" height="27.35"/><rect class="b" x="109.4" y="84.7" width="13.53" height="27.35"/><rect class="b" x="90.87" y="84.7" width="13.82" height="27.35"/><rect class="b" x="29.12" y="88.23" width="14.12" height="27.35"/></svg>