<?xml version="1.0" encoding="UTF-8"?><svg id="Layer_1" xmlns="http://www.w3.org/2000/svg" viewBox="0 0 28 28"><defs><style>.cls-1{fill:#fff;}.cls-2{fill:none;stroke:#07292d;stroke-miterlimit:10;stroke-width:.5px;}.cls-3{fill:#07292d;}</style></defs><circle class="cls-3" cx="14" cy="14" r="14"/><path class="cls-1" d="M7.28,4.87c-.74,.52-1.21,1.05-1.5,1.44-.41,.53-.54,.88-.57,.97-.21,.58-.19,1.08-.17,1.44,.02,.39,.1,.84,.37,1.6,.22,.6,.57,1.45,1.17,2.4,.41,.62,1,1.46,1.77,2.4,1,1.21,1.85,2.04,2.7,2.87,.76,.74,1.77,1.66,3.01,2.67,.75,.62,1.45,1.05,1.97,1.34,.5,.28,1.19,.65,2.17,.9,.64,.17,1.17,.3,1.84,.17,.63-.12,1.08-.41,1.2-.5,.16-.11,.3-.23,.87-.84,.33-.35,.62-.67,.87-.96l-4.54-4.61c-.42,.39-.77,.72-1.04,.97-.42,.41-.56,.55-.7,.73-.29,.38-.47,.75-.57,1l-.17,.2-1.67-1.5c-.67-.63-1.37-1.31-2.07-2.04-.71-.74-1.37-1.47-1.97-2.17l-1.17-1.44c.24-.13,.55-.31,.9-.57,.08-.06,.28-.21,.53-.43,.53-.47,1-.99,1.37-1.44L7.28,4.87Z"/><line class="cls-2" x1="6.3" y1="5.7" x2="11.01" y2="10.45"/><line class="cls-2" x1="17.5" y1="16.98" x2="22.21" y2="21.72"/></svg>