<?xml version="1.0" encoding="UTF-8"?><svg id="Layer_1" xmlns="http://www.w3.org/2000/svg" viewBox="0 0 28 28"><defs><style>.cls-1{fill:#fff;}.cls-2{fill:#07292d;}</style></defs><circle class="cls-2" cx="14" cy="14" r="14"/><g id="Logo"><path id="white_background" class="cls-1" d="M22.26,9.76c.01,.18,.01,.37,.01,.55,0,5.63-4.29,12.13-12.13,12.13h0c-2.32,0-4.58-.66-6.53-1.91,.34,.04,.68,.06,1.01,.06,1.92,0,3.78-.64,5.29-1.83-1.82-.03-3.42-1.22-3.98-2.96,.64,.12,1.3,.1,1.92-.07-1.99-.4-3.42-2.15-3.42-4.18v-.05c.59,.33,1.26,.51,1.93,.53-1.87-1.25-2.45-3.74-1.32-5.69,2.16,2.66,5.36,4.28,8.79,4.45-.34-1.48,.13-3.03,1.23-4.07,1.72-1.61,4.42-1.53,6.03,.18,.95-.19,1.87-.54,2.71-1.03-.32,.99-.98,1.83-1.87,2.36,.84-.1,1.67-.33,2.45-.67-.57,.86-1.29,1.6-2.13,2.21Z"/></g></svg>