<?xml version="1.0" encoding="UTF-8"?><svg id="Layer_1" xmlns="http://www.w3.org/2000/svg" viewBox="0 0 34.3 24.31"><defs><style>.cls-1{fill:#07292d;}</style></defs><path class="cls-1" d="M14.88,22.34c0,.1-.1,.18-.19,.14-2.5-.89-6.04-1.59-10.25-1.45-1.22,.04-2.05,0-2.93,.15-.09,.02-.18-.05-.18-.14V.17c0-.08,.06-.15,.14-.15,1.89-.07,4.3,0,7.04,.52,2.51,.48,4.62,1.2,6.27,1.89,.06,.02,.09,.08,.09,.14V22.34Z"/><path class="cls-1" d="M15.38,22.34c0,.1,.1,.18,.19,.14,2.5-.89,6.04-1.59,10.25-1.45,1.22,.04,2.05,0,2.93,.15,.09,.02,.18-.05,.18-.14V.17c0-.08-.06-.15-.14-.15-1.89-.07-4.3,0-7.04,.52-2.51,.48-4.62,1.2-6.27,1.89-.06,.02-.09,.08-.09,.14V22.34Z"/></svg>