<?xml version="1.0" encoding="UTF-8"?><svg id="Layer_1" xmlns="http://www.w3.org/2000/svg" viewBox="0 0 26 23.19"><defs><style>.cls-1{fill:#07292d;}</style></defs><path class="cls-1" d="M25,2.19V22.19H1V2.19H25m0-1H1c-.55,0-1,.45-1,1V22.19c0,.55,.45,1,1,1H25c.55,0,1-.45,1-1V2.18c0-.55-.45-1-1-1h0Z"/><path class="cls-1" d="M26,9.71H0V2.18C0,1.63,.45,1.19,1,1.19H25c.55,0,1,.45,1,1v7.53Z"/><path class="cls-1" d="M6.92,16.98c.56,1.18,1.05,2.38,1.48,3.62,.18,.52,.83,.75,1.25,.33,3.14-3.13,6.31-6.19,9.77-8.97,.75-.6-.31-1.66-1.06-1.06-3.46,2.78-6.64,5.84-9.77,8.97l1.25,.33c-.47-1.35-1.01-2.68-1.63-3.97-.41-.87-1.71-.11-1.3,.76h0Z"/><g><rect class="cls-1" x="3.8" width="1.84" height="2.37" rx=".5" ry=".5"/><rect class="cls-1" x="20.36" width="1.84" height="2.37" rx=".5" ry=".5"/></g></svg>